HIERARCHY
ROOT Hips
{
	OFFSET 0.000000 97.167313 0.000000
	CHANNELS 6 Xposition Yposition Zposition Xrotation Yrotation Zrotation
	JOINT Spine
	{
		OFFSET 0.000000 13.784798 0.064400
		CHANNELS 3 Xrotation Yrotation Zrotation
		JOINT Spine1
		{
			OFFSET 0.000000 12.037903 0.404700
			CHANNELS 3 Xrotation Yrotation Zrotation
			JOINT Spine2
			{
				OFFSET 0.000000 17.795601 0.420200
				CHANNELS 3 Xrotation Yrotation Zrotation
				JOINT Neck
				{
					OFFSET 0.000000 39.131302 11.954600
					CHANNELS 3 Xrotation Yrotation Zrotation
					JOINT Head
					{
						OFFSET 0.000000 14.456192 15.627699
						CHANNELS 3 Xrotation Yrotation Zrotation
						JOINT HeadTop_End
						{
							OFFSET 0.000000 15.703506 7.603401
							CHANNELS 3 Xrotation Yrotation Zrotation
							End Site
							{
								OFFSET 0.000000 17.447403 0.000000
							}
						}
					}
				}
				JOINT LeftShoulder
				{
					OFFSET 17.399500 24.608795 1.168800
					CHANNELS 3 Xrotation Yrotation Zrotation
					JOINT LeftArm
					{
						OFFSET 18.980635 5.765305 1.818600
						CHANNELS 3 Xrotation Yrotation Zrotation
						JOINT LeftForeArm
						{
							OFFSET 49.290169 0.000000 0.000000
							CHANNELS 3 Xrotation Yrotation Zrotation
							JOINT LeftHand
							{
								OFFSET 31.562012 0.000000 0.000000
								CHANNELS 3 Xrotation Yrotation Zrotation
								JOINT LeftHandThumb1
								{
									OFFSET 6.133995 -4.388519 7.076070
									CHANNELS 3 Xrotation Yrotation Zrotation
									JOINT LeftHandThumb2
									{
										OFFSET 6.037666 -3.485840 3.485847
										CHANNELS 3 Xrotation Yrotation Zrotation
										JOINT LeftHandThumb3
										{
											OFFSET 6.496506 -3.750763 3.750761
											CHANNELS 3 Xrotation Yrotation Zrotation
											JOINT LeftHandThumb4
											{
												OFFSET 5.616882 -3.242905 3.242910
												CHANNELS 3 Xrotation Yrotation Zrotation
												End Site
												{
													OFFSET -1.254608 7.132141 0.375429
												}
											}
										}
									}
								}
								JOINT LeftHandPinky1
								{
									OFFSET 18.920792 -0.453171 -11.426712
									CHANNELS 3 Xrotation Yrotation Zrotation
									JOINT LeftHandPinky2
									{
										OFFSET 4.919586 0.000000 0.000000
										CHANNELS 3 Xrotation Yrotation Zrotation
										JOINT LeftHandPinky3
										{
											OFFSET 5.233047 0.000000 0.000000
											CHANNELS 3 Xrotation Yrotation Zrotation
											JOINT LeftHandPinky4
											{
												OFFSET 5.571716 0.000000 0.000000
												CHANNELS 3 Xrotation Yrotation Zrotation
												End Site
												{
													OFFSET -3.459808 4.342407 -0.466164
												}
											}
										}
									}
								}
								JOINT LeftHandRing1
								{
									OFFSET 22.726120 -0.094986 -6.500475
									CHANNELS 3 Xrotation Yrotation Zrotation
									JOINT LeftHandRing2
									{
										OFFSET 6.408615 0.000000 0.000000
										CHANNELS 3 Xrotation Yrotation Zrotation
										JOINT LeftHandRing3
										{
											OFFSET 6.150223 0.000000 0.000000
											CHANNELS 3 Xrotation Yrotation Zrotation
											JOINT LeftHandRing4
											{
												OFFSET 6.145386 0.000000 0.000000
												CHANNELS 3 Xrotation Yrotation Zrotation
												End Site
												{
													OFFSET -3.671402 4.923981 -0.202372
												}
											}
										}
									}
								}
								JOINT LeftHandMiddle1
								{
									OFFSET 23.373947 0.000000 0.000001
									CHANNELS 3 Xrotation Yrotation Zrotation
									JOINT LeftHandMiddle2
									{
										OFFSET 6.996567 0.000000 0.000000
										CHANNELS 3 Xrotation Yrotation Zrotation
										JOINT LeftHandMiddle3
										{
											OFFSET 7.015945 0.000000 0.000000
											CHANNELS 3 Xrotation Yrotation Zrotation
											JOINT LeftHandMiddle4
											{
												OFFSET 7.721573 0.000000 0.000000
												CHANNELS 3 Xrotation Yrotation Zrotation
												End Site
												{
													OFFSET -4.651108 6.158463 0.251582
												}
											}
										}
									}
								}
								JOINT LeftHandIndex1
								{
									OFFSET 21.310577 -0.490082 6.209344
									CHANNELS 3 Xrotation Yrotation Zrotation
									JOINT LeftHandIndex2
									{
										OFFSET 7.536453 0.000000 0.000000
										CHANNELS 3 Xrotation Yrotation Zrotation
										JOINT LeftHandIndex3
										{
											OFFSET 7.512344 0.000000 0.000000
											CHANNELS 3 Xrotation Yrotation Zrotation
											JOINT LeftHandIndex4
											{
												OFFSET 10.212402 0.000000 0.000001
												CHANNELS 3 Xrotation Yrotation Zrotation
												End Site
												{
													OFFSET -5.180801 8.690506 1.388433
												}
											}
										}
									}
								}
							}
						}
					}
				}
				JOINT RightShoulder
				{
					OFFSET -17.399500 24.608795 1.168800
					CHANNELS 3 Xrotation Yrotation Zrotation
					JOINT RightArm
					{
						OFFSET -18.980635 5.765305 1.818600
						CHANNELS 3 Xrotation Yrotation Zrotation
						JOINT RightForeArm
						{
							OFFSET -49.290169 0.000000 0.000000
							CHANNELS 3 Xrotation Yrotation Zrotation
							JOINT RightHand
							{
								OFFSET -31.562012 0.000000 0.000000
								CHANNELS 3 Xrotation Yrotation Zrotation
								JOINT RightHandThumb1
								{
									OFFSET -6.133995 -4.388519 7.076070
									CHANNELS 3 Xrotation Yrotation Zrotation
									JOINT RightHandThumb2
									{
										OFFSET -6.037666 -3.485840 3.485847
										CHANNELS 3 Xrotation Yrotation Zrotation
										JOINT RightHandThumb3
										{
											OFFSET -6.496506 -3.750763 3.750761
											CHANNELS 3 Xrotation Yrotation Zrotation
											JOINT RightHandThumb4
											{
												OFFSET -5.616882 -3.242905 3.242910
												CHANNELS 3 Xrotation Yrotation Zrotation
												End Site
												{
													OFFSET 1.254608 7.132141 0.375429
												}
											}
										}
									}
								}
								JOINT RightHandIndex1
								{
									OFFSET -21.310577 -0.490082 6.209344
									CHANNELS 3 Xrotation Yrotation Zrotation
									JOINT RightHandIndex2
									{
										OFFSET -7.536453 0.000000 0.000000
										CHANNELS 3 Xrotation Yrotation Zrotation
										JOINT RightHandIndex3
										{
											OFFSET -7.512344 0.000000 0.000000
											CHANNELS 3 Xrotation Yrotation Zrotation
											JOINT RightHandIndex4
											{
												OFFSET -10.212402 0.000000 0.000001
												CHANNELS 3 Xrotation Yrotation Zrotation
												End Site
												{
													OFFSET 5.180801 8.690506 1.388433
												}
											}
										}
									}
								}
								JOINT RightHandMiddle1
								{
									OFFSET -23.373947 0.000000 0.000001
									CHANNELS 3 Xrotation Yrotation Zrotation
									JOINT RightHandMiddle2
									{
										OFFSET -6.996567 0.000000 0.000000
										CHANNELS 3 Xrotation Yrotation Zrotation
										JOINT RightHandMiddle3
										{
											OFFSET -7.015945 0.000000 0.000000
											CHANNELS 3 Xrotation Yrotation Zrotation
											JOINT RightHandMiddle4
											{
												OFFSET -7.721573 0.000000 0.000000
												CHANNELS 3 Xrotation Yrotation Zrotation
												End Site
												{
													OFFSET 4.651108 6.158463 0.251582
												}
											}
										}
									}
								}
								JOINT RightHandRing1
								{
									OFFSET -22.726120 -0.094986 -6.500475
									CHANNELS 3 Xrotation Yrotation Zrotation
									JOINT RightHandRing2
									{
										OFFSET -6.408615 0.000000 0.000000
										CHANNELS 3 Xrotation Yrotation Zrotation
										JOINT RightHandRing3
										{
											OFFSET -6.150223 0.000000 0.000000
											CHANNELS 3 Xrotation Yrotation Zrotation
											JOINT RightHandRing4
											{
												OFFSET -6.145386 0.000000 0.000000
												CHANNELS 3 Xrotation Yrotation Zrotation
												End Site
												{
													OFFSET 3.671402 4.923981 -0.202372
												}
											}
										}
									}
								}
								JOINT RightHandPinky1
								{
									OFFSET -18.920792 -0.453171 -11.426712
									CHANNELS 3 Xrotation Yrotation Zrotation
									JOINT RightHandPinky2
									{
										OFFSET -4.919586 0.000000 0.000000
										CHANNELS 3 Xrotation Yrotation Zrotation
										JOINT RightHandPinky3
										{
											OFFSET -5.233047 0.000000 0.000000
											CHANNELS 3 Xrotation Yrotation Zrotation
											JOINT RightHandPinky4
											{
												OFFSET -5.571716 0.000000 0.000000
												CHANNELS 3 Xrotation Yrotation Zrotation
												End Site
												{
													OFFSET 3.459808 4.342407 -0.466164
												}
											}
										}
									}
								}
							}
						}
					}
				}
			}
		}
	}
	JOINT LeftUpLeg
	{
		OFFSET 19.899099 -7.885101 -3.429500
		CHANNELS 3 Xrotation Yrotation Zrotation
		JOINT LeftLeg
		{
			OFFSET 1.745560 -36.997807 10.304700
			CHANNELS 3 Xrotation Yrotation Zrotation
			JOINT LeftFoot
			{
				OFFSET -1.745558 -29.803308 -13.615400
				CHANNELS 3 Xrotation Yrotation Zrotation
				JOINT LeftToeBase
				{
					OFFSET 1.181900 -18.539904 15.226099
					CHANNELS 3 Xrotation Yrotation Zrotation
					JOINT LeftToe_End
					{
						OFFSET -0.863701 1.402801 16.534700
						CHANNELS 3 Xrotation Yrotation Zrotation
						End Site
						{
							OFFSET 0.000000 16.616566 0.000000
						}
					}
				}
			}
		}
	}
	JOINT RightUpLeg
	{
		OFFSET -19.899099 -7.885101 -3.429500
		CHANNELS 3 Xrotation Yrotation Zrotation
		JOINT RightLeg
		{
			OFFSET -1.745560 -36.997807 10.304700
			CHANNELS 3 Xrotation Yrotation Zrotation
			JOINT RightFoot
			{
				OFFSET 1.745558 -29.803308 -13.615400
				CHANNELS 3 Xrotation Yrotation Zrotation
				JOINT RightToeBase
				{
					OFFSET -1.181900 -18.539904 15.226099
					CHANNELS 3 Xrotation Yrotation Zrotation
					JOINT RightToe_End
					{
						OFFSET 0.863701 1.402801 16.534700
						CHANNELS 3 Xrotation Yrotation Zrotation
						End Site
						{
							OFFSET 0.000000 16.616566 0.000000
						}
					}
				}
			}
		}
	}
}
MOTION
Frames: 4
Frame Time: 0.033333
2.046589 90.020699 4.750079 -1.365152 5.453498 -3.952921 2.343467 -0.379947 3.228991 2.476008 -0.546860 0.424194 2.466395 -0.602982 0.413104 1.132170 -1.243793 0.568311 -5.473107 -5.824673 -0.811170 -0.000000 -0.000000 0.000000 2.429530 -6.413656 -11.257899 12.217707 -30.039332 -51.605259 0.000007 -20.558343 0.000007 -40.114442 7.724015 13.839100 -6.000707 -6.126815 4.616761 7.230355 21.960023 2.178870 -5.596074 12.091060 16.242866 0.000001 0.000001 -0.000001 4.243222 17.490856 -25.349443 0.745290 2.861408 -29.192529 0.087708 1.011006 -9.916118 -0.000000 0.000001 -0.000000 2.890020 10.489007 -21.682938 0.280405 1.792432 -17.780850 0.087721 1.011072 -9.916820 -0.000000 0.000000 0.000002 0.422579 4.377978 -20.122326 0.279845 1.790693 -17.763039 0.087708 1.011003 -9.916095 0.000000 0.000000 0.000008 -2.034555 -4.751705 -15.395204 0.279843 1.790691 -17.763029 0.087707 1.010996 -9.916118 -0.000001 0.000003 0.000001 2.722370 2.783361 12.096167 -1.522727 10.767266 57.253921 0.000007 17.680421 0.000002 -11.260877 1.021891 -2.331954 -6.901942 8.181172 -4.018450 7.464519 -23.792674 -2.837969 -4.037343 -18.149547 -17.326561 -0.000001 -0.000003 0.000002 -1.992637 5.229598 14.550659 0.223274 -1.426132 17.794927 0.069990 -0.805203 9.934747 -0.000001 0.000000 0.000001 0.314667 -3.835310 19.453636 0.223273 -1.426130 17.794951 0.069983 -0.805206 9.934762 -0.000001 0.000000 -0.000008 2.703314 -9.946669 21.118579 0.223723 -1.427508 17.812794 0.070000 -0.805262 9.935470 0.000001 0.000002 -0.000003 3.960653 -16.894478 24.893768 0.594458 -2.278646 29.239306 0.069985 -0.805211 9.934747 -0.000002 -0.000001 0.000004 -34.308440 -4.376858 0.177652 52.395990 6.858081 5.888100 9.333385 -0.829448 0.530389 -7.697973 0.678907 -6.870831 -0.000002 -0.000001 0.000000 -8.047721 -6.483482 4.515038 22.201631 -3.229967 4.106964 -12.262973 -0.052676 -2.392611 -4.023551 -0.000001 0.000000 0.000001 -0.000000 0.000000 
2.028715 90.677299 10.253374 -0.874582 3.789617 -2.771315 2.141726 0.912075 2.795511 2.423517 0.389776 0.210978 2.429058 0.348122 0.229454 1.123669 -1.455639 0.130352 -5.239482 -7.039555 -0.950251 -0.000000 0.000000 0.000000 2.541523 -5.391981 -12.307266 20.569463 -32.633780 -48.734134 0.000007 -21.293149 -0.000008 -42.178443 12.811826 12.593248 -6.000709 -6.126817 4.616760 7.230351 21.960018 2.178865 -5.596075 12.091054 16.242863 0.000002 -0.000004 0.000000 4.243224 17.490858 -25.349443 0.745288 2.861408 -29.192519 0.087709 1.011001 -9.916114 0.000000 0.000000 -0.000002 2.890019 10.489007 -21.682943 0.280405 1.792432 -17.780859 0.087721 1.011073 -9.916818 -0.000000 0.000000 0.000003 0.422579 4.377977 -20.122326 0.279846 1.790689 -17.763037 0.087708 1.011002 -9.916099 0.000000 -0.000001 0.000008 -2.034555 -4.751706 -15.395200 0.279842 1.790696 -17.763027 0.087708 1.010998 -9.916117 -0.000001 0.000003 0.000001 2.552132 4.145165 10.578578 -0.482075 15.520293 55.400047 0.000003 21.837025 0.000022 -15.984582 2.047393 -3.613326 -6.901941 8.181173 -4.018454 7.464520 -23.792674 -2.837973 -4.037343 -18.149551 -17.326559 0.000001 -0.000001 0.000002 -1.992634 5.229599 14.550658 0.223273 -1.426133 17.794929 0.069989 -0.805205 9.934753 -0.000002 -0.000003 -0.000002 0.314668 -3.835310 19.453636 0.223272 -1.426128 17.794953 0.069984 -0.805204 9.934760 0.000002 0.000000 -0.000004 2.703317 -9.946669 21.118574 0.223723 -1.427510 17.812797 0.070001 -0.805262 9.935462 0.000002 0.000001 0.000000 3.960653 -16.894478 24.893767 0.594459 -2.278648 29.239309 0.069982 -0.805209 9.934744 0.000001 0.000000 -0.000003 -36.930348 -2.803693 -0.260580 43.192354 5.714894 5.368102 7.115689 -0.770965 -0.408475 -1.718676 0.000003 -0.000001 -0.000000 0.000000 0.000001 -3.089949 -7.258276 4.331281 19.844688 -0.780382 3.478119 -15.205449 0.455973 -3.476102 -3.552926 -0.000004 -0.000001 0.000000 -0.000001 -0.000000 
2.047712 91.390099 15.320509 -0.116644 1.874089 -2.373605 1.799080 2.455443 3.142262 2.166803 1.206259 0.222992 2.177126 1.179491 0.261225 1.028687 -1.603840 -0.385804 -5.145201 -7.926206 -1.397898 0.000000 -0.000000 -0.000000 2.653900 -4.534200 -13.365151 26.995073 -32.492422 -47.877860 0.000005 -22.112299 -0.000017 -43.797990 14.769722 12.468240 -6.000710 -6.126820 4.616757 7.230355 21.960023 2.178869 -5.596073 12.091060 16.242866 0.000001 0.000003 0.000003 4.243225 17.490858 -25.349439 0.745287 2.861408 -29.192522 0.087707 1.011004 -9.916116 -0.000000 0.000002 0.000001 2.890019 10.489008 -21.682936 0.280405 1.792431 -17.780856 0.087723 1.011071 -9.916822 -0.000001 0.000001 0.000002 0.422579 4.377976 -20.122323 0.279844 1.790696 -17.763036 0.087708 1.011002 -9.916087 0.000001 -0.000000 0.000009 -2.034553 -4.751705 -15.395209 0.279843 1.790691 -17.763024 0.087709 1.010994 -9.916114 -0.000001 0.000003 0.000002 2.454298 5.208360 9.625672 1.012001 19.378239 51.892062 0.000017 26.331127 0.000007 -19.355795 2.532971 -4.685583 -6.901943 8.181171 -4.018452 7.464518 -23.792675 -2.837966 -4.037345 -18.149551 -17.326559 -0.000001 0.000000 0.000005 -1.992634 5.229597 14.550653 0.223270 -1.426132 17.794929 0.069994 -0.805203 9.934751 0.000002 -0.000001 -0.000001 0.314668 -3.835314 19.453632 0.223272 -1.426128 17.794958 0.069981 -0.805204 9.934763 0.000001 -0.000000 -0.000009 2.703317 -9.946670 21.118581 0.223721 -1.427506 17.812794 0.070002 -0.805267 9.935468 -0.000003 0.000002 -0.000003 3.960652 -16.894478 24.893767 0.594457 -2.278646 29.239306 0.069987 -0.805209 9.934747 -0.000001 -0.000000 0.000002 -37.747481 -1.288911 0.681296 30.784431 5.875511 5.003550 6.617342 -0.501436 -1.129907 -1.518372 -0.000003 0.000001 -0.000000 0.000000 -0.000000 2.146533 -7.800981 4.939710 15.076557 1.309546 2.806306 -16.189913 0.931702 -4.937985 -3.736918 0.000004 -0.000001 0.000000 -0.000001 0.000000 
2.090603 91.658600 19.822363 0.715473 -0.456758 -2.722400 1.294538 4.325955 4.192957 1.743725 1.884049 0.479507 1.749678 1.869846 0.526073 0.902975 -1.679348 -0.940779 -5.142787 -8.409283 -2.135008 -0.000000 0.000000 -0.000000 2.765905 -3.781391 -14.261715 30.545979 -29.541002 -49.773088 0.000007 -22.981490 -0.000021 -45.080239 13.755461 13.142579 -6.000706 -6.126812 4.616762 7.230354 21.960023 2.178869 -5.596077 12.091057 16.242866 -0.000002 -0.000001 -0.000004 4.243228 17.490858 -25.349445 0.745289 2.861410 -29.192522 0.087706 1.011003 -9.916114 0.000002 0.000004 -0.000007 2.890021 10.489009 -21.682943 0.280407 1.792430 -17.780854 0.087720 1.011074 -9.916822 0.000001 0.000001 0.000005 0.422580 4.377980 -20.122328 0.279845 1.790689 -17.763036 0.087709 1.011002 -9.916098 -0.000000 -0.000000 0.000004 -2.034552 -4.751704 -15.395211 0.279843 1.790700 -17.763025 0.087708 1.011001 -9.916113 -0.000003 0.000005 0.000000 2.388516 6.005580 9.169775 2.881630 22.129712 47.093598 0.000007 30.719466 -0.000003 -21.622864 2.446922 -5.581611 -6.901939 8.181177 -4.018454 7.464519 -23.792670 -2.837971 -4.037339 -18.149553 -17.326564 -0.000000 -0.000001 0.000004 -1.992638 5.229604 14.550658 0.223273 -1.426130 17.794929 0.069993 -0.805202 9.934753 -0.000001 -0.000001 -0.000001 0.314667 -3.835308 19.453629 0.223275 -1.426127 17.794953 0.069984 -0.805201 9.934765 -0.000003 0.000000 -0.000009 2.703313 -9.946669 21.118574 0.223725 -1.427512 17.812790 0.070002 -0.805263 9.935466 -0.000002 -0.000002 -0.000003 3.960651 -16.894471 24.893763 0.594454 -2.278650 29.239306 0.069989 -0.805202 9.934744 0.000000 0.000001 0.000004 -38.112903 0.342713 2.776369 19.101655 6.563691 4.323754 4.113564 0.247338 -1.841705 -1.228731 0.000001 -0.000000 0.000001 0.000000 0.000000 6.482192 -8.123744 5.693837 10.740075 3.777100 2.221197 -16.584406 1.043018 -5.202571 -4.015244 -0.000000 -0.000002 0.000000 -0.000000 -0.000000 
